<?xml version="1.0" encoding="UTF-8" standalone="no" ?>
<!DOCTYPE svg PUBLIC "-//W3C//DTD SVG 1.1//EN" "http://www.w3.org/Graphics/SVG/1.1/DTD/svg11.dtd">
<svg xmlns="http://www.w3.org/2000/svg" xmlns:xlink="http://www.w3.org/1999/xlink" version="1.1" width="1280" height="1024" viewBox="0 0 1280 1024" xml:space="preserve">
<desc>Created with Fabric.js 5.3.0</desc>
<defs>
</defs>
<g transform="matrix(1 0 0 1 640 512)" id="background-logo"  >
<rect style="stroke: none; stroke-width: 0; stroke-dasharray: none; stroke-linecap: butt; stroke-dashoffset: 0; stroke-linejoin: miter; stroke-miterlimit: 4; fill: rgb(13,4,31); fill-rule: nonzero; opacity: 1;"  paint-order="stroke"  x="-640" y="-512" rx="0" ry="0" width="1280" height="1024" />
</g>
<g transform="matrix(1.9211538461538462 0 0 1.9211538461538462 640 395.6864080388972)" id="logo-logo"  >
<g style=""  paint-order="stroke"   >
		<g transform="matrix(0.917930923744532 0 0 0.9179309237445321 0 0)"  >
<g style=""  paint-order="stroke"   >
		<g transform="matrix(1 0 0 1 0 0)"  >
<linearGradient id="SVGID_2_41538" gradientUnits="userSpaceOnUse" gradientTransform="matrix(1 0 0 1 -100 -100)"  x1="0" y1="0" x2="0" y2="200">
<stop offset="0%" style="stop-color:rgb(147,103,233);stop-opacity: 1"/>
<stop offset="100%" style="stop-color:rgb(94,31,219);stop-opacity: 1"/>
</linearGradient>
<polygon style="stroke: none; stroke-width: 1; stroke-dasharray: none; stroke-linecap: butt; stroke-dashoffset: 0; stroke-linejoin: miter; stroke-miterlimit: 4; fill: url(#SVGID_2_41538); fill-rule: nonzero; opacity: 1;"  paint-order="stroke"  points="100,100 0,100 0,95.12 95.12,95.12 95.12,-95.12 -95.12,-95.12 -95.12,0 -100,0 -100,-100 100,-100 100,100 " />
</g>
</g>
</g>
</g>
</g>
<g transform="matrix(1.9211538461538462 0 0 1.9211538461538462 643.1963197115383 667.1128161574082)" id="text-logo"  >
<g style=""  paint-order="stroke"   >
		<g transform="matrix(1 0 0 1 0 0)" id="text-logo-path-0"  >
<path style="stroke: rgb(255,255,255); stroke-width: 0; stroke-dasharray: none; stroke-linecap: butt; stroke-dashoffset: 0; stroke-linejoin: miter; stroke-miterlimit: 4; fill: rgb(128,76,230); fill-rule: nonzero; opacity: 1;"  paint-order="stroke"  transform=" translate(-247.445, 19.25)" d="M 5.5 0 L 9.35 0 L 9.35 -14.3 L 13.2 -14.3 L 20.07 0 L 24.2 0 L 17.16 -14.74 C 20.41 -15.56 22.55 -17.82 22.55 -23.1 L 22.55 -29.7 C 22.55 -37.07 18.43 -38.5 13.2 -38.5 L 5.5 -38.5 Z M 9.35 -17.6 L 9.35 -35.2 L 13.2 -35.2 C 16.55 -35.2 18.7 -34.16 18.7 -29.15 L 18.7 -23.65 C 18.7 -18.64 16.55 -17.6 13.2 -17.6 Z M 50.21 -30.25 L 50.21 -8.25 C 50.21 -0.88 54.39 0.55 59.56 0.55 C 64.79 0.55 68.91 -0.99 68.91 -8.25 L 68.91 -30.25 C 68.91 -37.62 64.79 -39.05 59.56 -39.05 C 54.39 -39.05 50.21 -37.62 50.21 -30.25 Z M 54.06 -9.35 L 54.06 -29.15 C 54.06 -34.16 56.21 -35.2 59.56 -35.2 C 62.92 -35.2 65.06 -34.16 65.06 -29.15 L 65.06 -9.35 C 65.06 -4.34 62.92 -3.3 59.56 -3.3 C 56.21 -3.3 54.06 -4.34 54.06 -9.35 Z M 97.41 -30.25 L 97.41 -8.25 C 97.41 -0.88 101.59 0.55 106.76 0.55 C 111.98 0.55 116.11 -0.99 116.11 -8.25 L 116.11 -30.25 C 116.11 -37.62 111.98 -39.05 106.76 -39.05 C 101.59 -39.05 97.41 -37.62 97.41 -30.25 Z M 101.26 -9.35 L 101.26 -29.15 C 101.26 -34.16 103.4 -35.2 106.76 -35.2 C 110.11 -35.2 112.25 -34.16 112.25 -29.15 L 112.25 -9.35 C 112.25 -4.34 110.11 -3.3 106.76 -3.3 C 103.4 -3.3 101.26 -4.34 101.26 -9.35 Z M 169.51 -38.5 L 164.01 -38.5 L 157.47 -14.96 L 150.92 -38.5 L 145.42 -38.5 L 145.42 0 L 149.27 0 L 149.27 -30.58 L 155.49 -8.25 L 159.45 -8.25 L 165.66 -30.58 L 165.66 0 L 169.51 0 Z M 199.65 0 L 203.5 0 L 203.5 -14.3 L 207.35 -14.3 L 214.23 0 L 218.35 0 L 211.31 -14.74 C 214.56 -15.56 216.7 -17.82 216.7 -23.1 L 216.7 -29.7 C 216.7 -37.07 212.58 -38.5 207.35 -38.5 L 199.65 -38.5 Z M 203.5 -17.6 L 203.5 -35.2 L 207.35 -35.2 C 210.71 -35.2 212.85 -34.16 212.85 -29.15 L 212.85 -23.65 C 212.85 -18.64 210.71 -17.6 207.35 -17.6 Z M 244.37 -30.25 L 244.37 -8.25 C 244.37 -0.88 248.55 0.55 253.72 0.55 C 258.94 0.55 263.07 -0.99 263.07 -8.25 L 263.07 -30.25 C 263.07 -37.62 258.94 -39.05 253.72 -39.05 C 248.55 -39.05 244.37 -37.62 244.37 -30.25 Z M 248.22 -9.35 L 248.22 -29.15 C 248.22 -34.16 250.36 -35.2 253.72 -35.2 C 257.07 -35.2 259.22 -34.16 259.22 -29.15 L 259.22 -9.35 C 259.22 -4.34 257.07 -3.3 253.72 -3.3 C 250.36 -3.3 248.22 -4.34 248.22 -9.35 Z M 291.56 -30.25 L 291.56 -8.25 C 291.56 -0.88 295.74 0.55 300.91 0.55 C 306.13 0.55 310.26 -0.99 310.26 -8.25 L 310.26 -30.25 C 310.26 -37.62 306.13 -39.05 300.91 -39.05 C 295.74 -39.05 291.56 -37.62 291.56 -30.25 Z M 295.41 -9.35 L 295.41 -29.15 C 295.41 -34.16 297.55 -35.2 300.91 -35.2 C 304.26 -35.2 306.41 -34.16 306.41 -29.15 L 306.41 -9.35 C 306.41 -4.34 304.26 -3.3 300.91 -3.3 C 297.55 -3.3 295.41 -4.34 295.41 -9.35 Z M 347.82 0.55 C 352.99 0.55 357.17 -0.88 357.17 -8.25 L 357.17 -9.35 C 357.17 -18.21 342.32 -23.87 342.32 -29.15 C 342.32 -34.16 344.47 -35.2 347.82 -35.2 C 351.18 -35.2 353.32 -34.16 353.32 -29.15 L 353.32 -26.95 L 357.17 -26.95 L 357.17 -30.25 C 357.17 -37.62 353.05 -39.05 347.82 -39.05 C 342.65 -39.05 338.47 -37.62 338.47 -30.25 L 338.47 -29.15 C 338.47 -21.23 353.32 -15.56 353.32 -9.35 C 353.32 -4.34 351.18 -3.3 347.82 -3.3 C 344.47 -3.3 342.32 -4.34 342.32 -9.35 L 342.32 -12.21 L 338.47 -12.21 L 338.47 -8.25 C 338.47 -0.99 342.6 0.55 347.82 0.55 Z M 400.51 -38.5 L 382.36 -38.5 L 382.36 -35.2 L 389.51 -35.2 L 389.51 0 L 393.36 0 L 393.36 -35.2 L 400.51 -35.2 Z M 426.8 -38.5 L 426.8 0 L 443.3 0 L 443.3 -3.3 L 430.65 -3.3 L 430.65 -17.6 L 440 -17.6 L 440 -20.9 L 430.65 -20.9 L 430.65 -35.2 L 442.75 -35.2 L 442.75 -38.5 Z M 470.69 0 L 474.54 0 L 474.54 -14.3 L 478.39 -14.3 L 485.26 0 L 489.39 0 L 482.35 -14.74 C 485.6 -15.56 487.74 -17.82 487.74 -23.1 L 487.74 -29.7 C 487.74 -37.07 483.62 -38.5 478.39 -38.5 L 470.69 -38.5 Z M 474.54 -17.6 L 474.54 -35.2 L 478.39 -35.2 C 481.75 -35.2 483.89 -34.16 483.89 -29.15 L 483.89 -23.65 C 483.89 -18.64 481.75 -17.6 478.39 -17.6 Z" stroke-linecap="round" />
</g>
</g>
</g>
<g transform="matrix(1.9211538461538462 0 0 1.9211538461538462 644.6107692307693 399.55616508096466)" id="tagline-3a78d944-c0db-44d4-8ad5-60158c925687-logo"  >
<g style=""  paint-order="stroke"   >
		<g transform="matrix(1 0 0 1 0 0)" id="tagline-3a78d944-c0db-44d4-8ad5-60158c925687-logo-path-0"  >
<linearGradient id="SVGID_41539" gradientUnits="userSpaceOnUse" gradientTransform="matrix(1 0 0 1 8 -56)"  x1="-8" y1="-14.331199999999995" x2="-8" y2="75.6688">
<stop offset="0%" style="stop-color:rgb(147,103,233);stop-opacity: 1"/>
<stop offset="100%" style="stop-color:rgb(94,31,219);stop-opacity: 1"/>
</linearGradient>
<path style="stroke: rgb(255,255,255); stroke-width: 0; stroke-dasharray: none; stroke-linecap: butt; stroke-dashoffset: 0; stroke-linejoin: miter; stroke-miterlimit: 4; fill: url(#SVGID_41539); fill-rule: nonzero; opacity: 1;"  paint-order="stroke"  transform=" translate(-21.6, 28)" d="M 8 0 L 13.6 0 L 13.6 -20.8 L 19.2 -20.8 L 29.2 0 L 35.2 0 L 24.96 -21.44 C 29.68 -22.64 32.8 -25.92 32.8 -33.6 L 32.8 -43.2 C 32.8 -53.92 26.8 -56 19.2 -56 L 8 -56 Z M 13.6 -25.6 L 13.6 -51.2 L 19.2 -51.2 C 24.08 -51.2 27.2 -49.68 27.2 -42.4 L 27.2 -34.4 C 27.2 -27.12 24.08 -25.6 19.2 -25.6 Z" stroke-linecap="round" />
</g>
</g>
</g>

</svg>